<svg viewBox="0 0 369.66666666666663 69.59448179944869" preserveAspectRatio="xMidYMid meet" class="css-98pqax" id="haaecghc" xmlns="http://www.w3.org/2000/svg"><defs id="SvgjsDefs1001"></defs><g id="SvgjsG1007" featurekey="odWo6G-0" transform="matrix(0.8814349959712976,0,0,0.8814349959712976,-2.254003640667078,-5.327495379917367)" fill="#111"><g xmlns="http://www.w3.org/2000/svg"><path d="M85,42.9" style="stroke-width: 3; stroke-linecap: round; stroke-linejoin: round; stroke-miterlimit: 10" fill="none" stroke="#111"></path><path d="M66.8,17.9C66.2,12,70.5,6.7,76.4,6.1s11.1,3.7,11.7,9.6c0.6,5.9-3.7,11.1-9.6,11.7" style="stroke-width: 3; stroke-linecap: round; stroke-linejoin: round; stroke-miterlimit: 10" fill="none" stroke="#111"></path><path d="M22.4,27.3c-5.8-1.1-9.6-6.7-8.5-12.5s6.7-9.6,12.5-8.5s9.6,6.7,8.5,12.5" style="stroke-width: 3; stroke-linecap: round; stroke-linejoin: round; stroke-miterlimit: 10" fill="none" stroke="#111"></path></g><g xmlns="http://www.w3.org/2000/svg"><path d="M77.1,65.6c-5.2,8.8-15.4,14.5-26.7,13.9c-9.1-0.5-17-4.9-21.9-11.4" style="stroke-width: 3; stroke-linecap: round; stroke-miterlimit: 10" fill="none" stroke="#111"></path><path d="M39.2,63.9L39.2,63.9c-2.3,0-4.2-1.9-4.2-4.2v-6c0-2.3,1.9-4.2,4.2-4.2h0c2.3,0,4.2,1.9,4.2,4.2v6" style="stroke-width: 3; stroke-linecap: round; stroke-miterlimit: 10" fill="none" stroke="#111"></path><path d="M64.5,63.3L64.5,63.3c2.3,0,4.2-1.9,4.2-4.2v-6c0-2.3-1.9-4.2-4.2-4.2h0c-2.3,0-4.2,1.9-4.2,4.2v6" style="stroke-width: 3; stroke-linecap: round; stroke-miterlimit: 10" fill="none" stroke="#111"></path><line x1="48.2" y1="70" x2="51.9" y2="66.3" style="stroke-width: 3; stroke-linecap: round; stroke-miterlimit: 10" fill="none" stroke="#111"></line><line x1="55.5" y1="70" x2="51.9" y2="66.3" style="stroke-width: 3; stroke-linecap: round; stroke-miterlimit: 10" fill="none" stroke="#111"></line><circle cx="39.2" cy="53.7" r="3.6" style="stroke-width: 3; stroke-linecap: round; stroke-miterlimit: 10" fill="none" stroke="#111"></circle><circle cx="64.5" cy="52.5" r="3.6" style="stroke-width: 3; stroke-linecap: round; stroke-miterlimit: 10" fill="none" stroke="#111"></circle></g><g xmlns="http://www.w3.org/2000/svg"><path d="M39.9,29.5c0.9,8.1,7,14.6,15.2,15.3c-1.7-3.1-0.6-7,1.3-9.7c0.7,2,2,3.8,3.5,5.1c1.6,1.4,3.4,2.3,5.5,2.8   c1.2,0.3,3.1,0,4,0.7c0.6,0.5,1.1,1.6,1.6,2.3c0.9,1.3,1.6,2.7,2.3,4.2c1.9,4,3.2,8.3,3.7,12.7c0.7,6.7-0.8,13.5-4.1,19.4   c8-4,11.4-14.2,12-22.4c0.4-6-0.4-12-1.8-17.9c3.8,2.5,10,1.1,14,0c-3.4-0.7-6.7-2.1-9.6-3.8c-2.9-1.7-5.5-3.8-7.7-6.3   c-1.2-1.4-2.3-2.9-3.2-4.4c-0.4-0.8-0.7-1.6-1.3-2.4c-1.9-2.7-5.1-4.9-8-6.4c-6-3.3-12.9-4.2-19.6-3c-2,0.4-4,1-6,1.4   c-1.3,0.3-2.6,0.6-4,1c-4.5,1.4-8.9,3.5-12.5,6.7c-2.2,1.9-4.1,4.2-5.4,6.8c-0.7,1.4-1.3,2.8-1.8,4.3c-0.5,1.5-0.5,3.2-1,4.7   c-0.6,1.7-2.1,3.4-3.2,4.8c-2.6,2.9-5.7,5-9.4,6.3c-0.8,0.3-2.8,0.9-1.3,1.7C4.7,54.2,7.3,54,9,53.9c3.8-0.1,11.5-0.6,13.2-5   c-4,12.2-2.2,27.2,7.6,36.1c-2.2-13.1-1.7-27.5,2.1-40.2c0.7-2.3,1.2-4.6,1.7-7c1,3,3.6,5.5,6.3,6.9c-0.3-2.9-0.7-5.8-1-8.7   c-0.2-1.3-0.3-2.2,0.1-3.5C39.3,31.5,39.6,30.5,39.9,29.5z" style="stroke-width: 3; stroke-linecap: round; stroke-linejoin: round; stroke-miterlimit: 10" fill="none" stroke="#111"></path></g></g><g id="SvgjsG1008" featurekey="VGK2BT-0" transform="matrix(2.864303663128326,0,0,2.864303663128326,102.9999993170968,-2.701396146442743)" fill="#111"><path d="M7.24 6.28 l6.1 13.72 l-2 0 l-1.82 -4.02 l-5.8 0 l-1.72 4.02 l-2 0 l5.86 -13.72 l1.38 0 z M4.48 14.22 l4.24 0 l-2.2 -4.94 z M27.54 6.36 l0 13.64 l-1.68 0 l-9.12 -10.5 l0 10.5 l-1.84 0 l0 -13.64 l1.58 0 l9.2 10.58 l0 -10.58 l1.86 0 z M32.44 6.36 l0 13.64 l-1.96 0 l0 -13.64 l1.96 0 z M53.7 6.36 l0 13.64 l-1.96 0 l0 -10.62 l-4.2 5.28 l-0.36 0 l-4.24 -5.28 l0 10.62 l-1.96 0 l0 -13.64 l1.84 0 l4.54 5.6 l4.52 -5.6 l1.82 0 z M63.34 6.18 c4.54 0 7.36 3.32 7.36 6.98 c0 3.92 -3 7.02 -7.46 7.02 c-4.28 0 -7.2 -3.16 -7.2 -6.96 c0 -3.62 2.64 -7.04 7.3 -7.04 z M63.42 8.02 c-3.82 0 -5.36 2.92 -5.36 5.2 c0 3.1 2.44 5.14 5.3 5.14 c1.46 0 3.04 -0.6 3.98 -1.62 c0.86 -0.94 1.36 -2.42 1.36 -3.6 c0 -2.26 -1.72 -5.12 -5.28 -5.12 z M73.16 6.36 l3.42 0 c0.64 0 1.48 0.06 2.34 0.44 c1.46 0.62 2.14 1.98 2.14 3.36 c0 1.58 -0.8 2.78 -2.28 3.36 c1.24 0.82 2 2.08 3.04 3.76 c0.58 0.94 0.92 1.4 1.86 2.72 l-2.32 0 c-0.46 -0.66 -2.36 -3.64 -2.8 -4.22 c-1.34 -1.72 -2 -1.72 -2.94 -1.72 l-0.52 0 l0 5.94 l-1.94 0 l0 -13.64 z M75.7 8.02 l-0.6 0 l0 4.3 l0.76 0 c0.3 0 1.36 0 1.9 -0.2 c0.92 -0.36 1.3 -1.22 1.3 -1.96 c0 -0.78 -0.4 -1.52 -1.04 -1.82 c-0.5 -0.24 -1.14 -0.32 -2.32 -0.32 z M92.92 6.36 l0 1.74 l-5.78 0 l0 4.16 l5.58 0 l0 1.74 l-5.58 0 l0 4.24 l5.96 0 l0 1.76 l-7.92 0 l0 -13.64 l7.74 0 z"></path></g></svg>